# xmcd
# 
# Track frame offsets:
#     183
#     14233
#     36023
#     50125
#     66953
#     83713
#     103368
#     119553
#     145168
#     167283
#     185688
#     203638
# 
# Disc length: 2905
# 
# Revision: 2
# Processed by: cddbd v1.5.2PL0 Copyright (c) Steve Scherf et al.
# Submitted via: BonkEnc v1.0.8
# 
DISCID=b00b570c
DTITLE=Kimmie Rhodes - West Texas Heaven
DYEAR=1994
DGENRE=Country
TTITLE0=West Texas Heaven
TTITLE1=Hard promises to keep
TTITLE2=Wild roses
TTITLE3=Just to be near you
TTITLE4=Maybe we'll just disappear
TTITLE5=Be mine
TTITLE6=Git you a job
TTITLE7=I never heard you say
TTITLE8=The corner of the bar
TTITLE9=Home John
TTITLE10=I'm gonna fly
TTITLE11=Les roses sauvages
EXTD=
EXTT0=
EXTT1=
EXTT2=
EXTT3=
EXTT4=
EXTT5=
EXTT6=
EXTT7=
EXTT8=
EXTT9=
EXTT10=
EXTT11=
PLAYORDER=
